<?xml version="1.0" encoding="UTF-8"?>
<svg id="_图层_2" data-name="图层 2" xmlns="http://www.w3.org/2000/svg" xmlns:xlink="http://www.w3.org/1999/xlink" viewBox="0 0 1027 1027">
  <defs>
    <style>
      .cls-1 {
        fill: url(#_未命名的渐变_3);
      }

      .cls-1, .cls-2, .cls-3, .cls-4, .cls-5, .cls-6, .cls-7, .cls-8 {
        stroke-miterlimit: 10;
      }

      .cls-1, .cls-3, .cls-4, .cls-5, .cls-6, .cls-7, .cls-8 {
        stroke: #fff;
        stroke-width: 5px;
      }

      .cls-2 {
        fill: url(#_未命名的渐变_10);
        stroke: #ccc;
        stroke-width: 3px;
      }

      .cls-3 {
        fill: #3b73ff;
      }

      .cls-3, .cls-6 {
        opacity: .65;
      }

      .cls-4, .cls-6 {
        fill: none;
      }

      .cls-5 {
        fill: #fff;
      }

      .cls-7 {
        fill: url(#_未命名的渐变_4);
      }

      .cls-8 {
        fill: url(#_未命名的渐变_2);
      }
    </style>
    <linearGradient id="_未命名的渐变_10" data-name="未命名的渐变 10" x1="513.5" y1="1025.5" x2="513.5" y2="1.5" gradientUnits="userSpaceOnUse">
      <stop offset="0" stop-color="#3b73ff"/>
      <stop offset=".27" stop-color="#4077fe"/>
      <stop offset=".61" stop-color="#4f84fd"/>
      <stop offset=".98" stop-color="#6999fc"/>
      <stop offset="1" stop-color="#6b9bfc"/>
    </linearGradient>
    <linearGradient id="_未命名的渐变_4" data-name="未命名的渐变 4" x1="457.2" y1="719.3" x2="824.82" y2="547.89" gradientTransform="translate(0 1029) scale(1 -1)" gradientUnits="userSpaceOnUse">
      <stop offset="0" stop-color="#f38c63"/>
      <stop offset=".37" stop-color="#f59164"/>
      <stop offset=".41" stop-color="#f69364"/>
      <stop offset=".69" stop-color="#fca267"/>
      <stop offset=".92" stop-color="#ffa768"/>
    </linearGradient>
    <linearGradient id="_未命名的渐变_2" data-name="未命名的渐变 2" x1="327.72" y1="326.54" x2="535.08" y2="771.22" gradientTransform="translate(0 1029) scale(1 -1)" gradientUnits="userSpaceOnUse">
      <stop offset="0" stop-color="#7940ff"/>
      <stop offset=".12" stop-color="#764afd"/>
      <stop offset=".26" stop-color="#725dfc"/>
      <stop offset=".57" stop-color="#6795f5"/>
      <stop offset=".64" stop-color="#659cf4"/>
      <stop offset=".74" stop-color="#60b2f2"/>
      <stop offset=".87" stop-color="#58d5ee"/>
      <stop offset="1" stop-color="#4fffeb"/>
    </linearGradient>
    <linearGradient id="_未命名的渐变_3" data-name="未命名的渐变 3" x1="192.9" y1="283.9" x2="885.5" y2="283.9" gradientTransform="translate(0 1029) scale(1 -1)" gradientUnits="userSpaceOnUse">
      <stop offset="0" stop-color="#e08dff"/>
      <stop offset=".31" stop-color="#bc75fd"/>
      <stop offset="1" stop-color="#633bfb"/>
      <stop offset="1" stop-color="#633bfb"/>
    </linearGradient>
  </defs>
  <g id="_蓝色切割垫板" data-name="蓝色切割垫板">
    <rect class="cls-2" x="1.5" y="1.5" width="1024" height="1024" rx="238.17" ry="238.17"/>
    <rect class="cls-3" x="87.5" y="90.49" width="864.95" height="864.95" rx="238.17" ry="238.17"/>
    <g id="_横划分线" data-name="横划分线">
      <line class="cls-6" x1="126" y1="846" x2="914" y2="846"/>
      <line class="cls-6" x1="188" y1="911" x2="852" y2="911"/>
      <line class="cls-6" x1="97" y1="261" x2="943" y2="261"/>
      <line class="cls-6" x1="128" y1="196" x2="913" y2="196"/>
      <line class="cls-6" x1="194" y1="131" x2="846" y2="131"/>
      <line class="cls-6" x1="96" y1="781" x2="945.5" y2="781"/>
      <line class="cls-6" x1="88.5" y1="716" x2="953.5" y2="716"/>
      <line class="cls-6" x1="86.5" y1="651" x2="951.5" y2="651"/>
      <line class="cls-6" x1="86.5" y1="586" x2="951.5" y2="586"/>
      <line class="cls-6" x1="86.5" y1="521" x2="951.5" y2="521"/>
      <line class="cls-6" x1="86.5" y1="456" x2="951.5" y2="456"/>
      <line class="cls-6" x1="86.5" y1="391" x2="951.5" y2="391"/>
      <line class="cls-6" x1="86.5" y1="326" x2="951.5" y2="326"/>
    </g>
    <g id="_竖划分线" data-name="竖划分线">
      <line class="cls-6" x1="845" y1="915" x2="845" y2="129"/>
      <line class="cls-6" x1="910" y1="853" x2="910" y2="196"/>
      <line class="cls-6" x1="260" y1="944" x2="260" y2="98"/>
      <line class="cls-6" x1="195" y1="913" x2="195" y2="131"/>
      <line class="cls-6" x1="130" y1="847" x2="130" y2="195"/>
      <line class="cls-6" x1="780" y1="948" x2="780" y2="98.5"/>
      <line class="cls-6" x1="715" y1="954" x2="715" y2="88"/>
      <line class="cls-6" x1="650" y1="954.5" x2="650" y2="89.5"/>
      <line class="cls-6" x1="585" y1="954.5" x2="585" y2="89.5"/>
      <line class="cls-6" x1="520" y1="954.5" x2="520" y2="89.5"/>
      <line class="cls-6" x1="455" y1="954.5" x2="455" y2="89.5"/>
      <line class="cls-6" x1="390" y1="954.5" x2="390" y2="89.5"/>
      <line class="cls-6" x1="325" y1="954.5" x2="325" y2="89.5"/>
    </g>
  </g>
  <g id="CoCo图标_描边">
    <g id="_最终合并版" data-name=" 最终合并版">
      <path class="cls-4" d="M917.72,340.79c-2.06-8.99-5.09-17.66-8.97-25.88-5.78-9.78-11.96-19.31-18.52-28.58,0-.02-.01-.03-.03-.04-.51-.72-1.02-1.44-1.53-2.15-44.49-32.58-140.49-85.31-266.63-54.41-137.32,35.4-210.02,146.72-228.76,239.4-1.68,8.28-2.92,16.41-3.74,24.33,18.29-82.35,96.91-138.39,182.07-127.01,27.95,3.73,56.45,14.74,78.56,32.53,21.6,17.37,35.05,43.05,54.92,62.23,19.43,18.75,44.72,30.87,71.47,34.44,69.79,9.32,133.92-39.69,143.25-109.48,2.08-15.59,1.25-30.91-2.07-45.38h0Z"/>
      <path class="cls-4" d="M389.54,493.46c-1.03,4.6-1.86,9.29-2.5,14.05-12.01,89.92,51.14,172.55,141.06,184.57,30.32,4.05,61.58-.72,89.44-13.28,11.06-4.99,20.58-11.97,29.62-19.56-31.06,40.13-138.5,109.22-252.96,103.17-125.95-1.37-209.09-69.81-242.79-103.95h0c-18.79-57.85-25.24-120.72-16.65-185.06,30.65-229.4,241-390.58,469.82-360.01,118.82,15.88,219.25,80.33,284.07,170.75-44.49-32.58-140.49-85.31-266.63-54.41-149.59,38.57-222.5,167.23-232.49,263.73Z"/>
      <path class="cls-4" d="M879.44,705.51c-11.79-50.19-53.47-90.3-107.6-97.53-17.23-2.3-34.89-1.09-51.62,3.63-9.19,2.6-18.09,6.23-26.47,10.8-17.52,9.56-31.37,24.05-46.58,36.82h0c-31.06,40.14-138.5,109.22-252.96,103.17-124.09-1.35-206.62-67.8-241.26-102.41-.52-.52-1.02-1.04-1.53-1.54,48.19,148.38,177.54,263.66,342.18,285.66,128.84,17.21,251.83-26.37,340.18-108.7l.03-.02c7.68-7.16,15.1-14.61,22.24-22.35,13.39-17.25,22.53-38.16,25.63-61.36,2.12-15.88,1.24-31.46-2.23-46.17h0Z"/>
    </g>
  </g>
  <g id="CoCo图标_彩色">
    <g id="_最终合并版-2" data-name=" 最终合并版">
      <path class="cls-7" d="M867.91,303.7c-3.04-8.13-6.94-15.84-11.59-23.02-6.6-8.4-13.56-16.51-20.83-24.34,0-.02-.02-.02-.03-.03-.56-.61-1.13-1.21-1.7-1.81-45.55-24.83-141.64-62.05-255.42-17.52-123.64,50.12-177.57,162.99-183.49,251.75-.53,7.93-.68,15.67-.45,23.16,6.8-79.07,73.13-141.12,153.96-141.12,26.53,0,54.47,6.71,77.31,20.55,22.3,13.51,38.05,35.78,58.96,51.19,20.45,15.06,45.55,23.21,70.93,23.21,66.24,0,119.94-53.7,119.94-119.94,0-14.8-2.68-28.98-7.59-42.06h0Z"/>
      <path class="cls-8" d="M394.39,511.88c-.38,4.42-.58,8.9-.58,13.42,0,85.35,69.19,154.54,154.54,154.54,28.78,0,57.33-8.34,81.75-23.53,9.7-6.04,17.7-13.72,25.19-21.93-23.97,41.3-115.55,119.1-223.04,127.72-117.62,14.42-203.68-39.05-239.36-66.69h0c-24.73-51.61-38.58-109.43-38.58-170.5,0-217.74,176.07-394.25,393.27-394.25,112.78,0,214.46,47.59,286.17,123.84-45.55-24.83-141.64-62.05-255.42-17.52-134.7,54.6-186.65,183.67-183.95,274.9Z"/>
      <path class="cls-1" d="M877.66,648.58c-17.25-45.33-61.11-77.55-112.49-77.55-16.35,0-32.67,3.33-47.68,9.82-8.25,3.57-16.09,8.07-23.33,13.37-15.15,11.09-26.26,26.33-38.85,40.14h0c-23.97,41.3-115.55,119.11-223.04,127.73-115.88,14.2-201.12-37.48-237.74-65.44-.55-.42-1.08-.84-1.61-1.25,63.43,132.37,198.41,223.75,354.69,223.75,122.29,0,231.56-55.96,303.68-143.74l.02-.02c6.27-7.63,12.26-15.51,17.95-23.61,10.33-17.75,16.25-38.4,16.25-60.42,0-15.07-2.77-29.49-7.83-42.78h0Z"/>
    </g>
  </g>
  <g id="Plus_轮廓">
    <rect class="cls-4" x="467.5" y="496.65" width="167" height="48.71" rx="12" ry="12" transform="translate(1135.27 37.6) rotate(97)"/>
    <rect class="cls-4" x="467.5" y="496.65" width="167" height="48.71" rx="12" ry="12" transform="translate(67.6 -63.27) rotate(7)"/>
  </g>
  <g id="Plus_填充">
    <rect class="cls-5" x="483.94" y="501.44" width="134.11" height="39.12" rx="12" ry="12" transform="translate(1135.27 37.6) rotate(97)"/>
    <rect class="cls-5" x="483.94" y="501.44" width="134.11" height="39.12" rx="12" ry="12" transform="translate(67.6 -63.27) rotate(7)"/>
  </g>
</svg>