<?xml version="1.0" encoding="UTF-8"?>
<svg id="_最终合并版" data-name="最终合并版" xmlns="http://www.w3.org/2000/svg" xmlns:xlink="http://www.w3.org/1999/xlink" viewBox="0 0 1360.5 1172.78">
  <defs>
    <style>
      .cls-1 {
        fill: url(#_未命名的渐变_163);
      }

      .cls-2 {
        fill: url(#_未命名的渐变_35);
      }

      .cls-3 {
        fill: url(#_未命名的渐变_205);
      }
    </style>
    <linearGradient id="_未命名的渐变_205" data-name="未命名的渐变 205" x1="730.95" y1="380.09" x2="1209.08" y2="603.04" gradientUnits="userSpaceOnUse">
      <stop offset="0" stop-color="#f38c63"/>
      <stop offset=".37" stop-color="#f59164"/>
      <stop offset=".41" stop-color="#f69364"/>
      <stop offset=".69" stop-color="#fca267"/>
      <stop offset=".92" stop-color="#ffa768"/>
    </linearGradient>
    <linearGradient id="_未命名的渐变_163" data-name="未命名的渐变 163" x1="562.54" y1="890.93" x2="832.24" y2="312.56" gradientUnits="userSpaceOnUse">
      <stop offset="0" stop-color="#7940ff"/>
      <stop offset=".12" stop-color="#764afd"/>
      <stop offset=".26" stop-color="#725dfc"/>
      <stop offset=".57" stop-color="#6795f5"/>
      <stop offset=".64" stop-color="#659cf4"/>
      <stop offset=".74" stop-color="#60b2f2"/>
      <stop offset=".87" stop-color="#58d5ee"/>
      <stop offset="1" stop-color="#4fffeb"/>
    </linearGradient>
    <linearGradient id="_未命名的渐变_35" data-name="未命名的渐变 35" x1="387.18" y1="946.39" x2="1288" y2="946.39" gradientUnits="userSpaceOnUse">
      <stop offset="0" stop-color="#e08dff"/>
      <stop offset=".31" stop-color="#bc75fd"/>
      <stop offset="1" stop-color="#633bfb"/>
      <stop offset="1" stop-color="#633bfb"/>
    </linearGradient>
  </defs>
  <path class="cls-3" d="M1265.13,372.29c-3.96-10.57-9.03-20.6-15.08-29.94-8.59-10.92-17.64-21.48-27.09-31.66-.01-.02-.02-.03-.04-.04-.73-.79-1.47-1.58-2.21-2.36-59.24-32.3-184.22-80.7-332.21-22.79-160.81,65.19-230.95,211.99-238.66,327.43-.69,10.32-.88,20.38-.59,30.12,8.84-102.84,95.12-183.55,200.25-183.55,34.51,0,70.85,8.73,100.55,26.73,29.01,17.57,49.49,46.54,76.69,66.58,26.6,19.59,59.24,30.19,92.26,30.19,86.16,0,156-69.84,156-156,0-19.25-3.49-37.69-9.87-54.71Z"/>
  <path class="cls-1" d="M649.25,643.05c-.5,5.75-.75,11.57-.75,17.45,0,111.01,89.99,201,201,201,37.43,0,74.57-10.85,106.33-30.6,12.61-7.85,23.02-17.85,32.76-28.52-31.17,53.71-150.29,154.91-290.09,166.12-152.98,18.75-264.91-50.79-311.32-86.74h0c-32.17-67.12-50.18-142.33-50.18-221.76,0-283.2,229.01-512.78,511.5-512.78,146.69,0,278.94,61.9,372.21,161.07-59.24-32.3-184.22-80.7-332.21-22.79-175.19,71.02-242.77,238.89-239.25,357.55Z"/>
  <path class="cls-2" d="M1277.81,820.86c-22.43-58.96-79.48-100.86-146.31-100.86-21.27,0-42.49,4.33-62.02,12.77-10.73,4.64-20.93,10.49-30.35,17.39-19.7,14.43-34.15,34.25-50.53,52.21h0c-31.17,53.72-150.29,154.92-290.09,166.13-150.72,18.47-261.59-48.75-309.22-85.12-.71-.55-1.41-1.09-2.1-1.62,82.5,172.16,258.06,291.02,461.32,291.02,159.06,0,301.17-72.79,394.98-186.96l.03-.03c8.16-9.93,15.95-20.17,23.35-30.71,13.44-23.09,21.14-49.94,21.14-78.58,0-19.6-3.6-38.36-10.19-55.64Z"/>
</svg>